<mxfile host="app.diagrams.net" modified="2022-12-23T15:41:52.293Z" agent="5.0 (Windows NT 10.0; Win64; x64) AppleWebKit/537.36 (KHTML, like Gecko) Chrome/108.0.0.0 Safari/537.36 Edg/108.0.1462.54" etag="JK94CRU-9YBf1ZpknlNu" version="20.7.4" type="github" pages="2">
  <diagram id="No3KN3qGRtw96EyJSMok" name="Page-1">
    <mxGraphModel dx="1420" dy="792" grid="1" gridSize="10" guides="1" tooltips="1" connect="1" arrows="1" fold="1" page="1" pageScale="1" pageWidth="1100" pageHeight="850" math="0" shadow="0">
      <root>
        <mxCell id="0" />
        <mxCell id="1" parent="0" />
        <mxCell id="WWve4jKYjb2qWgEW-PSw-10" value="" style="group" parent="1" vertex="1" connectable="0">
          <mxGeometry x="472.44" y="157.48" width="472.44000000000005" height="393.69999999999993" as="geometry" />
        </mxCell>
        <mxCell id="WWve4jKYjb2qWgEW-PSw-1" value="" style="rounded=0;whiteSpace=wrap;html=1;" parent="WWve4jKYjb2qWgEW-PSw-10" vertex="1">
          <mxGeometry x="157.48000000000002" y="39.370000000000005" width="157.48" height="314.96" as="geometry" />
        </mxCell>
        <mxCell id="WWve4jKYjb2qWgEW-PSw-2" value="" style="shape=trapezoid;perimeter=trapezoidPerimeter;whiteSpace=wrap;html=1;fixedSize=1;" parent="WWve4jKYjb2qWgEW-PSw-10" vertex="1">
          <mxGeometry x="157.48000000000002" width="157.48" height="39.37" as="geometry" />
        </mxCell>
        <mxCell id="WWve4jKYjb2qWgEW-PSw-3" value="" style="shape=trapezoid;perimeter=trapezoidPerimeter;whiteSpace=wrap;html=1;fixedSize=1;flipV=1;" parent="WWve4jKYjb2qWgEW-PSw-10" vertex="1">
          <mxGeometry x="157.48000000000002" y="354.33000000000004" width="157.48" height="39.37" as="geometry" />
        </mxCell>
        <mxCell id="WWve4jKYjb2qWgEW-PSw-4" value="" style="rounded=0;whiteSpace=wrap;html=1;" parent="WWve4jKYjb2qWgEW-PSw-10" vertex="1">
          <mxGeometry x="314.96000000000004" y="39.370000000000005" width="157.48" height="314.96" as="geometry" />
        </mxCell>
        <mxCell id="WWve4jKYjb2qWgEW-PSw-5" value="" style="rounded=0;whiteSpace=wrap;html=1;" parent="WWve4jKYjb2qWgEW-PSw-10" vertex="1">
          <mxGeometry y="39.370000000000005" width="157.48" height="314.96" as="geometry" />
        </mxCell>
        <mxCell id="WWve4jKYjb2qWgEW-PSw-6" value="" style="shape=trapezoid;perimeter=trapezoidPerimeter;whiteSpace=wrap;html=1;fixedSize=1;" parent="WWve4jKYjb2qWgEW-PSw-10" vertex="1">
          <mxGeometry width="157.48" height="39.37" as="geometry" />
        </mxCell>
        <mxCell id="WWve4jKYjb2qWgEW-PSw-7" value="" style="shape=trapezoid;perimeter=trapezoidPerimeter;whiteSpace=wrap;html=1;fixedSize=1;" parent="WWve4jKYjb2qWgEW-PSw-10" vertex="1">
          <mxGeometry x="314.96000000000004" width="157.48" height="39.37" as="geometry" />
        </mxCell>
        <mxCell id="WWve4jKYjb2qWgEW-PSw-8" value="" style="shape=trapezoid;perimeter=trapezoidPerimeter;whiteSpace=wrap;html=1;fixedSize=1;flipV=1;" parent="WWve4jKYjb2qWgEW-PSw-10" vertex="1">
          <mxGeometry x="314.96000000000004" y="354.3299999999999" width="157.48" height="39.37" as="geometry" />
        </mxCell>
        <mxCell id="WWve4jKYjb2qWgEW-PSw-9" value="" style="shape=trapezoid;perimeter=trapezoidPerimeter;whiteSpace=wrap;html=1;fixedSize=1;flipV=1;" parent="WWve4jKYjb2qWgEW-PSw-10" vertex="1">
          <mxGeometry y="354.3299999999999" width="157.48" height="39.37" as="geometry" />
        </mxCell>
        <mxCell id="Wm7NuS6IeF-9XF-8CjFC-2" value="" style="verticalLabelPosition=middle;verticalAlign=middle;html=1;shape=trapezoid;perimeter=trapezoidPerimeter;whiteSpace=wrap;size=0.05962257112014202;arcSize=10;flipV=0;labelPosition=center;align=center;rotation=0;direction=north;" parent="1" vertex="1">
          <mxGeometry x="78.74" y="196.85" width="39.37" height="314.96" as="geometry" />
        </mxCell>
        <mxCell id="Wm7NuS6IeF-9XF-8CjFC-3" value="" style="verticalLabelPosition=middle;verticalAlign=middle;html=1;shape=trapezoid;perimeter=trapezoidPerimeter;whiteSpace=wrap;size=0.05962257112014202;arcSize=10;flipV=0;labelPosition=center;align=center;rotation=0;direction=north;flipH=1;" parent="1" vertex="1">
          <mxGeometry x="275.59" y="196.85" width="39.37" height="314.96" as="geometry" />
        </mxCell>
        <mxCell id="Wm7NuS6IeF-9XF-8CjFC-4" value="" style="whiteSpace=wrap;html=1;aspect=fixed;" parent="1" vertex="1">
          <mxGeometry x="118.11000000000001" y="39.37" width="157.48" height="157.48" as="geometry" />
        </mxCell>
        <mxCell id="Wm7NuS6IeF-9XF-8CjFC-5" value="" style="whiteSpace=wrap;html=1;aspect=fixed;" parent="1" vertex="1">
          <mxGeometry x="118.10999999999999" y="511.81" width="157.48" height="157.48" as="geometry" />
        </mxCell>
        <mxCell id="Wm7NuS6IeF-9XF-8CjFC-6" value="" style="rounded=0;whiteSpace=wrap;html=1;" parent="1" vertex="1">
          <mxGeometry x="118.10999999999999" y="196.85" width="157.48" height="314.96" as="geometry" />
        </mxCell>
      </root>
    </mxGraphModel>
  </diagram>
  <diagram id="W5OhUR7npWjXwzOt86Ch" name="Page-2">
    <mxGraphModel dx="1183" dy="660" grid="1" gridSize="10" guides="1" tooltips="1" connect="1" arrows="1" fold="1" page="1" pageScale="1" pageWidth="1100" pageHeight="850" math="0" shadow="0">
      <root>
        <mxCell id="0" />
        <mxCell id="1" parent="0" />
        <mxCell id="JSVQ-LoNeUHzrSkqwPDx-6" value="" style="rounded=0;whiteSpace=wrap;html=1;fillColor=#FFD700;fontColor=#000000;strokeColor=#BD7000;" vertex="1" parent="1">
          <mxGeometry x="39.37" y="39.37" width="999.9979999999999" height="799.9984" as="geometry" />
        </mxCell>
        <mxCell id="JSVQ-LoNeUHzrSkqwPDx-2" value="" style="rounded=0;whiteSpace=wrap;html=1;" vertex="1" parent="1">
          <mxGeometry x="1100" y="320" width="157.48" height="314.96" as="geometry" />
        </mxCell>
        <mxCell id="JSVQ-LoNeUHzrSkqwPDx-20" value="" style="group" vertex="1" connectable="0" parent="1">
          <mxGeometry x="39.36999999999989" y="39.37" width="984.245" height="236.23000000000002" as="geometry" />
        </mxCell>
        <mxCell id="JSVQ-LoNeUHzrSkqwPDx-1" value="" style="whiteSpace=wrap;html=1;aspect=fixed;" vertex="1" parent="JSVQ-LoNeUHzrSkqwPDx-20">
          <mxGeometry x="472.44000000000017" y="39.36999999999995" width="157.48" height="157.48" as="geometry" />
        </mxCell>
        <mxCell id="JSVQ-LoNeUHzrSkqwPDx-3" value="" style="whiteSpace=wrap;html=1;aspect=fixed;" vertex="1" parent="JSVQ-LoNeUHzrSkqwPDx-20">
          <mxGeometry x="1.2079226507921703e-13" y="39.36999999999989" width="157.48" height="157.48" as="geometry" />
        </mxCell>
        <mxCell id="JSVQ-LoNeUHzrSkqwPDx-4" value="" style="rounded=0;whiteSpace=wrap;html=1;direction=south;" vertex="1" parent="JSVQ-LoNeUHzrSkqwPDx-20">
          <mxGeometry x="629.9200000000001" y="39.36999999999995" width="314.96" height="157.48" as="geometry" />
        </mxCell>
        <mxCell id="JSVQ-LoNeUHzrSkqwPDx-5" value="" style="rounded=0;whiteSpace=wrap;html=1;direction=south;" vertex="1" parent="JSVQ-LoNeUHzrSkqwPDx-20">
          <mxGeometry x="157.4800000000001" y="39.36999999999995" width="314.96" height="157.48" as="geometry" />
        </mxCell>
        <mxCell id="JSVQ-LoNeUHzrSkqwPDx-7" value="" style="shape=trapezoid;perimeter=trapezoidPerimeter;whiteSpace=wrap;html=1;fixedSize=1;size=40;flipV=1;" vertex="1" parent="JSVQ-LoNeUHzrSkqwPDx-20">
          <mxGeometry x="629.9200000000001" y="196.84999999999997" width="314.96" height="39.37" as="geometry" />
        </mxCell>
        <mxCell id="JSVQ-LoNeUHzrSkqwPDx-11" value="" style="shape=trapezoid;perimeter=trapezoidPerimeter;whiteSpace=wrap;html=1;fixedSize=1;size=40;flipV=1;" vertex="1" parent="JSVQ-LoNeUHzrSkqwPDx-20">
          <mxGeometry x="157.4800000000001" y="196.84999999999997" width="314.96" height="39.37" as="geometry" />
        </mxCell>
        <mxCell id="JSVQ-LoNeUHzrSkqwPDx-12" value="" style="shape=trapezoid;perimeter=trapezoidPerimeter;whiteSpace=wrap;html=1;fixedSize=1;size=40;" vertex="1" parent="JSVQ-LoNeUHzrSkqwPDx-20">
          <mxGeometry x="157.4800000000001" width="314.96" height="39.37" as="geometry" />
        </mxCell>
        <mxCell id="JSVQ-LoNeUHzrSkqwPDx-13" value="" style="shape=trapezoid;perimeter=trapezoidPerimeter;whiteSpace=wrap;html=1;fixedSize=1;size=40;" vertex="1" parent="JSVQ-LoNeUHzrSkqwPDx-20">
          <mxGeometry x="630.6300000000001" width="314.96" height="39.37" as="geometry" />
        </mxCell>
        <mxCell id="JSVQ-LoNeUHzrSkqwPDx-15" value="" style="shape=trapezoid;perimeter=trapezoidPerimeter;whiteSpace=wrap;html=1;fixedSize=1;size=40;flipV=1;direction=south;" vertex="1" parent="JSVQ-LoNeUHzrSkqwPDx-20">
          <mxGeometry x="944.875" y="39.375" width="39.37" height="157.48" as="geometry" />
        </mxCell>
        <mxCell id="JSVQ-LoNeUHzrSkqwPDx-16" value="" style="shape=trapezoid;perimeter=trapezoidPerimeter;whiteSpace=wrap;html=1;fixedSize=1;size=40;flipV=1;direction=west;" vertex="1" parent="JSVQ-LoNeUHzrSkqwPDx-20">
          <mxGeometry x="472.44" width="157.48" height="39.37" as="geometry" />
        </mxCell>
        <mxCell id="JSVQ-LoNeUHzrSkqwPDx-17" value="" style="shape=trapezoid;perimeter=trapezoidPerimeter;whiteSpace=wrap;html=1;fixedSize=1;size=40;flipV=1;direction=east;" vertex="1" parent="JSVQ-LoNeUHzrSkqwPDx-20">
          <mxGeometry y="196.86" width="157.48" height="39.37" as="geometry" />
        </mxCell>
        <mxCell id="JSVQ-LoNeUHzrSkqwPDx-18" value="" style="shape=trapezoid;perimeter=trapezoidPerimeter;whiteSpace=wrap;html=1;fixedSize=1;size=40;flipV=1;direction=west;" vertex="1" parent="JSVQ-LoNeUHzrSkqwPDx-20">
          <mxGeometry width="157.48" height="39.37" as="geometry" />
        </mxCell>
        <mxCell id="JSVQ-LoNeUHzrSkqwPDx-19" value="" style="shape=trapezoid;perimeter=trapezoidPerimeter;whiteSpace=wrap;html=1;fixedSize=1;size=40;flipV=1;direction=east;" vertex="1" parent="JSVQ-LoNeUHzrSkqwPDx-20">
          <mxGeometry x="473.15" y="196.85000000000008" width="157.48" height="39.37" as="geometry" />
        </mxCell>
        <mxCell id="JSVQ-LoNeUHzrSkqwPDx-21" value="" style="rounded=0;whiteSpace=wrap;html=1;direction=south;" vertex="1" parent="1">
          <mxGeometry x="39.37" y="275.59" width="196.85" height="314.96" as="geometry" />
        </mxCell>
      </root>
    </mxGraphModel>
  </diagram>
</mxfile>
